<svg id="Capa_1" enable-background="new 0 0 512.002 512.002" height="512" fill="black" viewBox="0 0 512.002 512.002" width="512" xmlns="http://www.w3.org/2000/svg"><g><g><path d="m344.29 115.286c3.11-7.013 1.889-15.165-3.1-20.869l-70.481-87.357c-3.659-4.528-9.075-7.118-14.837-7.059-5.757.042-11.114 2.674-14.712 7.223l-70.821 87.777c-4.77 5.905-5.688 13.851-2.397 20.736 3.223 6.743 9.775 10.93 17.095 10.929h.011 30.953v68.25c0 5.523 4.477 10 10 10s10-4.477 10-10v-78.25c0-5.523-4.477-10-10-10h-39.375l69.374-85.985 69.375 85.986h-39.374c-5.523 0-10 4.477-10 10v370.335c0 2.71-2.29 5-5 5h-30.001c-2.71 0-5-2.29-5-5v-202.085c0-5.523-4.477-10-10-10s-10 4.477-10 10v202.085c0 13.785 11.215 25 25 25h30.001c13.785 0 25-11.215 25-25v-360.335h30.951c7.581 0 14.225-4.361 17.338-11.381z"/><path d="m487.002 432.001h-43v-132.778h30.951c7.581 0 14.225-4.361 17.337-11.381 3.11-7.013 1.889-15.165-3.1-20.868l-70.48-87.356c-3.659-4.529-9.079-7.102-14.837-7.06-5.757.042-11.114 2.673-14.712 7.222l-70.822 87.779c-4.77 5.906-5.688 13.851-2.396 20.736 3.223 6.742 9.775 10.929 17.095 10.929h.011 30.953v172.778c0 22.056 17.944 40 40 40h83c13.785 0 25-11.215 25-25v-30c0-13.786-11.215-25.001-25-25.001zm5 55.001c0 2.71-2.29 5-5 5h-83c-11.028 0-20-8.972-20-20v-182.779c0-5.523-4.477-10-10-10h-39.375l69.375-85.985 69.374 85.985h-39.373c-5.523 0-10 4.477-10 10v152.778c0 5.523 4.477 10 10 10h53c2.71 0 5 2.29 5 5v30.001z"/><path d="m122.842 259.783c-3.598-4.549-8.956-7.18-14.712-7.222-.047 0-.093 0-.139 0-5.718 0-11.069 2.568-14.702 7.065l-70.477 87.352c-4.988 5.703-6.209 13.855-3.1 20.868 3.113 7.021 9.756 11.381 17.337 11.381h30.951v52.775h-43c-13.785 0-25 11.215-25 25v30c0 13.785 11.215 25 25 25h83c22.056 0 40-17.944 40-40v-92.775h30.947.01c7.326 0 13.879-4.188 17.102-10.93 3.291-6.885 2.373-14.831-2.394-20.731zm15.159 99.443c-5.523 0-10 4.477-10 10v102.775c0 11.028-8.972 20-20 20h-83.001c-2.71 0-5-2.29-5-5v-30c0-2.71 2.29-5 5-5h53c5.523 0 10-4.477 10-10v-72.775c0-5.523-4.477-10-10-10h-39.374l69.375-85.986 69.375 85.986z"/><path d="m226.001 249.92c5.523 0 10-4.477 10-10v-.007c0-5.523-4.477-9.996-10-9.996s-10 4.48-10 10.003 4.477 10 10 10z"/></g></g></svg>
