<svg width="1335" height="1003" viewBox="0 0 1335 1003" fill="none" xmlns="http://www.w3.org/2000/svg">
<path d="M1135.51 64.0963C1149.52 -9.74483 1249.53 -23.1317 1282.47 44.4235L1853.86 1216.17C1886.25 1282.6 1837.88 1360 1763.98 1360H452.383C440.71 1360 429.128 1357.96 418.161 1353.96L66.1715 1225.76C24.0797 1210.43 -2.68134 1168.98 0.674828 1124.31L6.93339 1041.01C8.29683 1022.86 13.3426 1005.18 21.7629 989.046L67.9191 900.609C72.2844 892.245 77.8114 884.541 84.3358 877.726L104.298 856.873C133.174 826.71 138.731 781.132 117.951 744.914L114.984 739.744C105.642 723.461 90.7493 711.086 73.0313 704.881C17.7988 685.541 2.64207 614.586 45.1518 574.366L77.7094 543.563C92.5466 529.525 111.327 520.367 131.524 517.321L285.03 494.171C305.194 491.13 323.946 481.997 338.772 467.998L417.594 393.571C449.581 363.368 497.55 357.617 535.77 379.403L680.186 461.722C743.087 497.577 822.06 456.778 829.218 384.731L846.196 213.823C851.413 161.304 896.546 121.882 949.289 123.773L1055.96 127.597C1094.52 128.979 1128.31 102.003 1135.51 64.0963Z" fill="#515170"/>
</svg>
