<?xml version="1.0" encoding="UTF-8"?> <svg xmlns="http://www.w3.org/2000/svg" width="183" height="53" viewBox="0 0 183 53" fill="none"> <path d="M4.47852 53V0H0V53H4.47852ZM22.3926 53V0H8.95704V53H22.3926ZM31.3496 53V0H26.8711V53H31.3496Z" fill="black"></path> <path d="M47.6028 53V0H43.1243V53H47.6028ZM65.5169 53V0H52.0813V53H65.5169Z" fill="black"></path> <path d="M95.2931 53V0H86.3361V53H95.2931ZM81.8575 53V0H77.379V53H81.8575Z" fill="black"></path> <path d="M113.838 53V0H109.359V53H113.838Z" fill="black"></path> <path d="M130.467 53V0H125.989V53H130.467ZM148.381 53V0H139.424V53H148.381Z" fill="black"></path> <path d="M164.722 53V0H160.244V53H164.722ZM182.636 53V0H169.201V53H182.636Z" fill="black"></path> </svg> 